<svg width="230" height="55" viewBox="0 0 230 55" fill="none" xmlns="http://www.w3.org/2000/svg">
<path d="M116.524 33.9823C115.826 34.2582 115.224 34.6408 114.717 35.1306C114.211 35.6203 113.817 36.2113 113.535 36.9039C113.254 37.5964 113.113 38.3537 113.113 39.1752V39.6311C113.113 40.5209 113.234 41.3369 113.476 42.0802C113.718 42.8233 114.076 43.4648 114.548 44.0051C115.021 44.5458 115.615 44.9651 116.33 45.2635C117.045 45.5617 117.876 45.7109 118.821 45.7109C119.767 45.7109 120.594 45.5617 121.304 45.2635C122.013 44.9651 122.607 44.5458 123.085 44.0051C123.564 43.4648 123.921 42.8232 124.158 42.0802C124.394 41.337 124.512 40.5209 124.512 39.6311V39.1752C124.512 38.3538 124.371 37.5964 124.09 36.9039C123.809 36.2114 123.417 35.6203 122.916 35.1306C122.415 34.6408 121.816 34.2581 121.118 33.9823C120.42 33.7065 119.654 33.5684 118.821 33.5684C117.988 33.5684 117.222 33.7066 116.524 33.9823ZM117.039 43.6083C116.572 43.3887 116.192 43.0848 115.899 42.6967C115.607 42.3081 115.398 41.8493 115.275 41.3203C115.151 40.7911 115.089 40.217 115.089 39.5975V39.2093C115.089 38.027 115.401 37.0872 116.026 36.3886C116.651 35.6909 117.583 35.3417 118.821 35.3417C120.048 35.3417 120.974 35.691 121.599 36.3886C122.224 37.0871 122.536 38.027 122.536 39.2093V39.5975C122.536 40.2395 122.474 40.8279 122.351 41.3626C122.227 41.8973 122.021 42.356 121.734 42.7386C121.447 43.1215 121.064 43.4173 120.586 43.6253C120.107 43.834 119.508 43.9378 118.788 43.9378C118.09 43.9378 117.507 43.8279 117.039 43.6083ZM108.064 33.7709L104.77 41.9781L101.477 33.7709H98.9105V45.5081H100.819V36.4566L103.842 44.124H105.682L108.672 36.6599V45.5089H110.58V33.7717L108.064 33.7709ZM94.1151 33.7709L88.3227 42.4855V33.7709H86.4141V45.5081H88.2719L94.1154 36.7263V45.5081H96.0234V33.7709H94.1151ZM76.8384 33.7709V45.5081H78.7464V35.5444H83.982L84.5561 33.7711L76.8384 33.7709ZM71.4344 33.7709L68.1412 41.9781L64.8481 33.7709H62.2812V45.5081H64.1893V36.4566L67.2123 44.124H69.0534L72.0423 36.6599V45.5089H73.9508V33.7717L71.4344 33.7709Z" fill="white"/>
<path d="M64.9106 9.64496C64.0775 9.88224 63.3323 10.2605 62.6751 10.7799L64.257 12.8894C64.7767 12.5075 65.2695 12.2168 65.7358 12.018C66.202 11.8194 66.7563 11.7199 67.3982 11.7199C68.8196 11.7199 69.8893 12.0604 70.608 12.7403C71.3263 13.4206 71.7314 14.5323 71.8231 16.0761H66.5724V18.4833H71.8231C71.7466 20.1497 71.3532 21.3801 70.6423 22.1747C69.9317 22.9697 68.7737 23.367 67.1687 23.367C66.4657 23.367 65.8735 23.2831 65.3918 23.1147C64.9104 22.9466 64.4175 22.6181 63.913 22.1289C63.6684 22.3735 63.3934 22.6715 63.0877 23.0231C62.7818 23.3748 62.5146 23.6802 62.2852 23.9401C62.9576 24.6279 63.7103 25.1058 64.5434 25.373C65.3767 25.6402 66.2517 25.7743 67.1687 25.7743C68.4987 25.7743 69.6336 25.5716 70.5736 25.1666C71.5136 24.7619 72.2816 24.1962 72.8777 23.4702C73.4738 22.7444 73.9094 21.8767 74.1847 20.8677C74.4597 19.859 74.5973 18.7432 74.5973 17.5205V16.6721C74.5973 14.3643 73.9972 12.5563 72.7976 11.2496C71.5975 9.94251 69.7977 9.28906 67.3978 9.28906C66.5722 9.28906 65.7434 9.40822 64.9106 9.64496ZM165.251 14.3795V18.1858H160.367V13.669L157.868 14.3796V25.5005H160.367V20.3417H165.251V25.5005H167.75V13.669L165.251 14.3795ZM148.33 14.0128C147.673 14.2421 147.092 14.571 146.588 14.9987C146.084 15.4268 145.678 15.9388 145.373 16.5349C145.067 17.131 144.899 17.7958 144.868 18.5294C144.853 18.6978 144.845 18.8735 144.845 19.0569V19.8822C144.845 21.8235 145.342 23.2909 146.336 24.2843C147.329 25.2781 148.781 25.7746 150.692 25.7746C151.624 25.7746 152.495 25.5797 153.306 25.19C154.115 24.8003 154.765 24.1927 155.254 23.3673L153.191 22.5189C152.824 22.8707 152.48 23.1305 152.159 23.2984C151.838 23.4668 151.387 23.5506 150.806 23.5506C150.149 23.5506 149.599 23.4745 149.156 23.3215C148.712 23.1688 148.357 22.9585 148.089 22.6907C147.822 22.4236 147.631 22.1027 147.516 21.728C147.402 21.3537 147.344 20.9449 147.344 20.5014H155.736V19.1945C155.736 18.3692 155.617 17.6164 155.38 16.9362C155.143 16.2563 154.796 15.6751 154.337 15.1936C153.879 14.7122 153.32 14.3376 152.664 14.0703C152.006 13.8029 151.257 13.6691 150.416 13.6691C149.683 13.6691 148.988 13.7835 148.33 14.0128ZM147.607 17.2566C147.783 16.9437 148.016 16.6835 148.307 16.4772C148.597 16.2708 148.925 16.1218 149.292 16.0301C149.659 15.9384 150.034 15.8926 150.416 15.8926C150.829 15.8926 151.207 15.9539 151.551 16.076C151.895 16.1985 152.193 16.3664 152.445 16.5804C152.697 16.7946 152.892 17.0542 153.03 17.3599C153.167 17.6658 153.236 18.0018 153.236 18.3688H147.343C147.343 17.941 147.431 17.5702 147.607 17.2566ZM122.375 22.7022C122.054 22.7022 121.84 22.5646 121.733 22.2894L118.432 13.669L116.07 14.3568L119.922 24.4671C120.166 25.0787 120.648 25.3843 121.366 25.3843L120.678 27.2414C120.541 27.5929 120.4 27.8032 120.254 27.872C120.109 27.9407 119.868 27.9753 119.532 27.9753H118.569V29.947C118.829 30.0232 119.131 30.0882 119.475 30.1419C119.819 30.195 120.12 30.222 120.38 30.222C120.732 30.222 121.045 30.1607 121.321 30.0386C121.595 29.916 121.844 29.7482 122.066 29.5342C122.287 29.3199 122.475 29.0792 122.627 28.8121C122.78 28.5444 122.918 28.2579 123.04 27.9522L128.107 14.357L125.722 13.6692L122.375 22.7022ZM106.621 13.9663C105.903 14.165 105.169 14.4786 104.421 14.9062L105.498 16.7632C106.079 16.4576 106.633 16.2323 107.16 16.087C107.688 15.9419 108.303 15.8691 109.006 15.8691C109.786 15.8845 110.378 16.0755 110.783 16.4424C111.188 16.8091 111.391 17.4131 111.391 18.2536V18.5286H107.36C106.81 18.5286 106.294 18.6129 105.812 18.7808C105.331 18.9492 104.91 19.1936 104.551 19.5147C104.192 19.8356 103.913 20.2253 103.714 20.6839C103.516 21.1426 103.416 21.6549 103.416 22.2202C103.416 22.7553 103.527 23.2403 103.749 23.6758C103.97 24.1117 104.265 24.4862 104.632 24.7995C104.998 25.1127 105.423 25.3537 105.904 25.5216C106.385 25.6897 106.886 25.7738 107.406 25.7738C108.185 25.7738 108.907 25.6169 109.572 25.3039C110.237 24.9907 110.883 24.6046 111.51 24.1459C111.54 24.3602 111.586 24.597 111.647 24.8569C111.708 25.1169 111.8 25.3306 111.922 25.4988H114.559C114.314 25.0402 114.142 24.6159 114.043 24.2261C113.944 23.8364 113.894 23.3817 113.894 22.862V17.8633C113.894 17.1909 113.76 16.5948 113.493 16.0749C113.225 15.5555 112.866 15.116 112.415 14.7567C111.964 14.3976 111.445 14.1263 110.856 13.9427C110.268 13.7594 109.653 13.6677 109.011 13.6677C108.14 13.6677 107.345 13.7672 106.626 13.9658M106.397 23.2975C106.061 23.1297 105.893 22.7782 105.893 22.2428C105.893 21.7538 106.019 21.3795 106.271 21.1195C106.523 20.8596 106.894 20.7297 107.383 20.7297H111.395V21.922C111.15 22.0595 110.871 22.224 110.558 22.4149C110.245 22.606 109.92 22.7858 109.584 22.9536C109.247 23.122 108.911 23.2632 108.575 23.3777C108.239 23.4923 107.933 23.5497 107.658 23.5497C107.154 23.5497 106.733 23.4659 106.397 23.2975ZM84.2035 14.3788V18.185H79.3219V13.6683L76.8227 14.3789V25.5014H79.3219V20.343H84.2035V25.5017H86.7027V13.6703L84.2035 14.3788ZM169.587 13.9432V16.0755H173.324V25.5015H175.823V16.0788H179.033L179.538 13.9465L169.587 13.9432ZM138.956 13.9432L136.159 20.1801L133.362 13.9432H129.74V25.5026H131.986V16.8585L135.082 23.8052H137.237L140.309 16.9497V25.5028H142.533V13.9468L138.956 13.9432ZM91.7493 13.9432V16.3047C91.7493 17.0844 91.7265 17.8867 91.6807 18.7123C91.6498 19.1248 91.5963 19.595 91.5201 20.1222C91.4434 20.6497 91.3098 21.1465 91.1188 21.6125C90.9276 22.079 90.6524 22.4724 90.2935 22.7933C89.9342 23.1144 89.4716 23.275 88.9064 23.275V28.0668H91.0614V25.4983H99.3145V28.0661H101.47V23.2743H100.186V13.9459L91.7493 13.9432ZM93.7668 21.1884C93.935 20.4395 94.0343 19.6601 94.0649 18.8497C94.0801 18.4983 94.0916 18.1085 94.0995 17.6805C94.1068 17.2528 94.1109 16.7941 94.1109 16.3046V16.0755H97.8251V23.2746H92.873C93.3008 22.6326 93.5987 21.9373 93.7668 21.1884Z" fill="white"/>
<path d="M6.25 27.4989C6.25 40.3829 16.694 50.8279 29.579 50.8279C42.463 50.8279 52.908 40.3829 52.908 27.4989C52.908 14.6149 42.463 4.16992 29.579 4.16992C16.695 4.17014 6.25 14.6149 6.25 27.4989ZM28.558 6.96492C28.558 6.40093 29.0153 5.94362 29.5793 5.94362C30.1434 5.94362 30.6008 6.40089 30.6008 6.96492C30.6008 7.52891 30.1434 7.98622 29.5793 7.98622C29.0153 7.98622 28.558 7.52895 28.558 6.96492ZM33.3859 8.36122C32.8326 8.25113 32.4734 7.71332 32.5834 7.16032C32.6935 6.60701 33.2311 6.24775 33.7843 6.35787C34.3376 6.46769 34.6969 7.00551 34.5868 7.55877C34.4901 8.04476 34.0636 8.38111 33.5863 8.38111C33.5202 8.38111 33.4532 8.37462 33.3859 8.36122ZM24.5709 7.5587C24.461 7.00547 24.8203 6.4677 25.3736 6.3578C25.9266 6.24766 26.4644 6.60695 26.5745 7.16025C26.6845 7.71328 26.3252 8.25105 25.7721 8.36115C25.7048 8.37454 25.6377 8.38098 25.5716 8.38098C25.0943 8.38094 24.6676 8.04469 24.5709 7.5587ZM37.046 9.47154C36.5249 9.25567 36.2773 8.65818 36.4932 8.13704C36.709 7.6159 37.3065 7.36835 37.8278 7.58419C38.3488 7.80012 38.5964 8.39765 38.3806 8.91879C38.2176 9.31217 37.8373 9.54967 37.4365 9.54959C37.3062 9.54959 37.1738 9.5245 37.046 9.47154ZM20.777 8.91887C20.5612 8.39778 20.8087 7.80027 21.3299 7.58427C21.851 7.36845 22.4483 7.61598 22.6642 8.13712C22.88 8.65826 22.6327 9.25572 22.1116 9.47162C21.9838 9.52457 21.8514 9.54961 21.7212 9.54961C21.3204 9.54961 20.94 9.31218 20.777 8.91887ZM40.419 11.2746C39.9501 10.9614 39.824 10.3272 40.1372 9.85812C40.4507 9.38915 41.0849 9.26313 41.5538 9.57632C42.0229 9.88977 42.149 10.524 41.8356 10.9928C41.6388 11.2876 41.3153 11.447 40.9856 11.447C40.7906 11.447 40.5934 11.3911 40.419 11.2746ZM17.3209 10.9928C17.0077 10.5239 17.1338 9.88972 17.6027 9.57632C18.0719 9.2631 18.706 9.38915 19.0193 9.85812C19.3328 10.3272 19.2067 10.9614 18.7375 11.2746C18.5632 11.3912 18.3661 11.447 18.171 11.447C17.8414 11.447 17.5178 11.2876 17.3209 10.9928ZM11.8386 27.4948C11.8386 17.6982 19.7802 9.75583 29.5776 9.75583C39.375 9.75583 47.3166 17.6981 47.3166 27.4948C47.3166 37.2914 39.375 45.2338 29.5776 45.2338C19.7802 45.2338 11.8386 37.2915 11.8386 27.4948ZM43.3766 13.6968C42.9776 13.2981 42.9776 12.6513 43.3766 12.2524C43.7755 11.8537 44.422 11.8537 44.8209 12.2524C45.2198 12.6513 45.2198 13.2981 44.8209 13.6968C44.6214 13.8963 44.3601 13.996 44.0987 13.996C43.8373 13.996 43.576 13.8963 43.3766 13.6968ZM14.3375 13.6968C13.9386 13.2981 13.9386 12.6513 14.3375 12.2524C14.7362 11.8537 15.383 11.8537 15.7819 12.2524C16.1806 12.6513 16.1806 13.2981 15.7819 13.6968C15.5824 13.8963 15.3211 13.996 15.0597 13.996C14.7983 13.996 14.5369 13.8963 14.3375 13.6968ZM45.8046 16.6537C45.4911 16.1848 45.6174 15.5506 46.0863 15.2371C46.5552 14.9236 47.1894 15.05 47.5028 15.5188C47.8163 15.9878 47.69 16.6219 47.2211 16.9354C47.0468 17.0519 46.8498 17.1077 46.6547 17.1077C46.3251 17.1077 46.0015 16.9483 45.8046 16.6537ZM11.9385 16.9355C11.4694 16.622 11.3433 15.9878 11.6567 15.5189C11.97 15.05 12.6041 14.9236 13.0733 15.2372C13.5423 15.5506 13.6686 16.1848 13.3551 16.6538C13.1582 16.9484 12.8346 17.1078 12.5049 17.1078C12.3099 17.1078 12.1128 17.052 11.9385 16.9355ZM47.6085 20.0271C47.3926 19.506 47.64 18.9087 48.1611 18.6928C48.6822 18.477 49.2797 18.7243 49.4957 19.2454C49.7115 19.7665 49.464 20.364 48.9428 20.5799C48.815 20.6329 48.6827 20.6579 48.5525 20.6579C48.1517 20.6579 47.7714 20.4204 47.6085 20.0271ZM10.2216 20.5829C9.70049 20.367 9.45314 19.7694 9.66906 19.2484C9.88499 18.7272 10.4822 18.4799 11.0034 18.6958C11.5245 18.9117 11.7721 19.509 11.5562 20.0301C11.3939 20.4236 11.0133 20.6612 10.6128 20.6612C10.4827 20.6612 10.3494 20.6358 10.2216 20.5829ZM48.7235 23.6908C48.6133 23.1375 48.9726 22.6 49.5259 22.4899C50.0789 22.3797 50.6168 22.739 50.7269 23.2923C50.8367 23.8456 50.4774 24.3833 49.9244 24.4932C49.8571 24.5066 49.79 24.5131 49.7239 24.5131C49.2466 24.513 48.8199 24.1767 48.7235 23.6908ZM9.2485 24.4931C8.69532 24.3833 8.33601 23.8455 8.44617 23.2923C8.55626 22.739 9.09387 22.3798 9.64707 22.4899C10.2004 22.6 10.5596 23.1375 10.4495 23.6908C10.3528 24.1767 9.92632 24.513 9.44902 24.513C9.38296 24.513 9.31585 24.5066 9.2485 24.4931ZM49.1015 27.4975C49.1015 26.9335 49.5588 26.4762 50.1228 26.4762C50.687 26.4762 51.1443 26.9335 51.1443 27.4975C51.1443 28.0615 50.687 28.5188 50.1228 28.5188C49.5588 28.5188 49.1015 28.0615 49.1015 27.4975ZM8.03352 27.4975C8.03352 26.9335 8.49079 26.4762 9.05482 26.4762C9.61901 26.4762 10.076 26.9335 10.076 27.4975C10.076 28.0615 9.619 28.5188 9.05482 28.5188C8.49078 28.5188 8.03352 28.0615 8.03352 27.4975ZM49.5275 32.5055C48.9743 32.3954 48.615 31.8576 48.7251 31.3046C48.835 30.7513 49.3728 30.392 49.926 30.5021C50.4791 30.6121 50.8384 31.1498 50.7285 31.703C50.6318 32.189 50.2051 32.5253 49.728 32.5253C49.662 32.5253 49.5948 32.5189 49.5275 32.5055ZM8.44457 31.7039C8.33443 31.1507 8.69372 30.6129 9.24695 30.503C9.80026 30.3929 10.3379 30.7522 10.448 31.3055C10.5581 31.8585 10.1988 32.3963 9.6455 32.5064C9.57815 32.5198 9.51112 32.5262 9.445 32.5262C8.96776 32.5262 8.54128 32.1899 8.44457 31.7039ZM48.1656 36.2977C47.6445 36.0818 47.3971 35.4846 47.6131 34.9634C47.8289 34.4422 48.4262 34.1947 48.9473 34.4106C49.4685 34.6264 49.716 35.224 49.5002 35.7451C49.3373 36.1384 48.957 36.3758 48.5563 36.3758C48.426 36.3758 48.2934 36.3507 48.1656 36.2977ZM9.67268 35.7473C9.45681 35.2262 9.70413 34.6287 10.2253 34.4128C10.7464 34.1969 11.3439 34.4444 11.5598 34.9656C11.7757 35.4867 11.5281 36.0839 11.0069 36.2999C10.8791 36.3529 10.7467 36.378 10.6164 36.378C10.2158 36.378 9.83566 36.1406 9.67268 35.7473ZM46.0936 39.7556C45.6247 39.4421 45.4984 38.8079 45.8118 38.339C46.1253 37.8701 46.7595 37.7437 47.2284 38.0572C47.6973 38.3706 47.8237 39.0049 47.5102 39.4738C47.3132 39.7685 46.9896 39.9278 46.66 39.9278C46.4649 39.9278 46.2679 39.872 46.0936 39.7556ZM11.6646 39.474C11.3511 39.0051 11.4772 38.3709 11.9464 38.0574C12.4153 37.744 13.0495 37.8703 13.363 38.3392C13.6764 38.8081 13.5502 39.4423 13.0812 39.7558C12.9068 39.8723 12.7097 39.9281 12.5147 39.9281C12.185 39.9281 11.8613 39.7687 11.6646 39.474ZM43.3826 42.7401C42.9836 42.3412 42.9836 41.6944 43.3826 41.2957C43.7815 40.8968 44.428 40.8968 44.8269 41.2957C45.2259 41.6944 45.2259 42.3412 44.8269 42.7401C44.6274 42.9395 44.3661 43.0392 44.1047 43.0392C43.8434 43.0392 43.5821 42.9395 43.3826 42.7401ZM14.3436 42.7401C13.9447 42.3412 13.9447 41.6944 14.3436 41.2957C14.7423 40.8968 15.3891 40.8968 15.788 41.2957C16.1867 41.6944 16.1867 42.3412 15.788 42.7401C15.5885 42.9395 15.3271 43.0392 15.0657 43.0392C14.8043 43.0392 14.543 42.9395 14.3436 42.7401ZM40.1456 45.139C39.8324 44.6699 39.9584 44.0357 40.4274 43.7222C40.8965 43.409 41.5308 43.535 41.844 44.0042C42.1574 44.4731 42.0314 45.1073 41.5622 45.4207C41.3879 45.5372 41.1908 45.5929 40.9958 45.5929C40.6661 45.5929 40.3426 45.4337 40.1456 45.139ZM17.6146 45.4206C17.1456 45.1071 17.0196 44.4729 17.3328 44.0041C17.6462 43.5349 18.2805 43.4088 18.7494 43.7221C19.2186 44.0356 19.3446 44.6697 19.0312 45.1389C18.8344 45.4335 18.5108 45.5928 18.1812 45.5928C17.9862 45.5928 17.7889 45.537 17.6146 45.4206ZM36.5046 46.8598C36.2887 46.3386 36.5363 45.7412 37.0574 45.5253C37.5786 45.3093 38.1761 45.557 38.392 46.0781C38.6079 46.5992 38.3603 47.1967 37.8392 47.4126C37.7114 47.4655 37.579 47.4905 37.4489 47.4905C37.048 47.4905 36.6676 47.2531 36.5046 46.8598ZM21.3406 47.4129C20.8195 47.1971 20.5719 46.5995 20.7878 46.0784C21.0037 45.5573 21.6012 45.3097 22.1224 45.5256C22.6435 45.7415 22.8909 46.3389 22.6749 46.8601C22.512 47.2535 22.1318 47.4909 21.7309 47.4909C21.6008 47.4909 21.4684 47.4658 21.3406 47.4129ZM32.5937 47.837C32.4836 47.2836 32.8428 46.7461 33.3961 46.636C33.9494 46.5259 34.4869 46.8851 34.597 47.4384C34.7072 47.9917 34.3479 48.5295 33.7946 48.6393C33.7273 48.6527 33.6602 48.6591 33.5941 48.6591C33.1169 48.6591 32.6904 48.3229 32.5937 47.837ZM25.3841 48.6389C24.8308 48.5291 24.4715 47.9914 24.5814 47.438C24.6915 46.8847 25.2293 46.5255 25.7826 46.6356C26.3357 46.7457 26.695 47.2833 26.5851 47.8366C26.4884 48.3226 26.0618 48.6588 25.5846 48.6588C25.5185 48.6588 25.4514 48.6524 25.3841 48.6389ZM28.5681 48.0321C28.5681 47.4681 29.0254 47.0108 29.5894 47.0108C30.1535 47.0108 30.6109 47.4681 30.6109 48.0321C30.6109 48.5961 30.1536 49.0534 29.5894 49.0534C29.0254 49.0534 28.5681 48.5961 28.5681 48.0321ZM29.5901 23.2231L23.205 16.838L21.7033 19.6853L29.5903 27.5721L37.4766 19.6853L35.9749 16.838L29.5901 23.2231ZM33.1774 26.8347V37.9247H36.2525V28.1073L41.0974 23.2637L39.578 20.4339L33.1774 26.8347ZM18.0834 23.2644L22.9275 28.108V37.9234H26.0024V26.8344L19.6026 20.4353L18.0834 23.2644ZM28.053 37.9234H31.1271V28.5976H28.053V37.9234Z" fill="white"/>
</svg>
