<svg width="149" height="149" viewBox="0 0 149 149" fill="none" xmlns="http://www.w3.org/2000/svg">
<path d="M74.6623 79.6191V79.6221L53.996 85.0345V87.4698L40.5022 90.8353L40.5172 96.7083L32.6644 98.3992L25.3494 97.0613V97.0518L22.982 97.62V100.485L20.6289 101.02V106.272H21.8007V102.062L22.982 101.807V106.272H25.3494V101.298L28.3514 100.651V106.272H29.5084V100.402L31.9026 99.8866V106.272H33.0596V99.6372L35.8131 99.0443V106.272H36.9701V98.7953L40.5208 98.0308L40.5448 106.272H42.0231L41.9818 95.5477L45.0099 94.8597L45.0331 106.272H46.5099L46.4782 94.5263L49.8892 93.7518L49.9205 106.272H51.3985L51.3572 93.4182L52.8042 93.0896V106.272H54.2773V92.7552L55.5496 92.466L55.5429 106.272H57.9774V101.584L58.9756 101.373V106.272H60.9303V101.214L67.5863 99.4809V106.272H69.5406V99.0829L74.6672 98.0383L79.7937 99.0829V106.272H81.748V99.4809L88.404 101.214V106.272H90.3587V101.373L91.3569 101.584V106.272H93.7914L93.7849 92.466L95.0572 92.7552V106.272H96.5304V93.0896L97.9773 93.4182L97.9361 106.272H99.414L99.4453 93.7518L102.856 94.5263L102.825 106.273H104.301L104.325 94.8599L107.353 95.5478L107.311 106.272H108.79L108.814 98.0309L112.364 98.7955V106.273H113.521V99.0445L116.275 99.6374V106.273H117.432V99.887L119.826 100.402V106.273H120.983V100.652L123.985 101.298V106.273H126.353V101.808L127.534 102.063V106.273H128.706V101.021L126.353 100.485V97.6206L123.985 97.0524V97.0619L116.67 98.3998L108.817 96.7089L108.832 90.8359L95.3385 87.4703V85.0351L74.6722 79.6227V79.6197L74.6663 79.6216L74.6623 79.6191ZM74.6682 83.2927L76.9693 83.8664L74.8975 84.9398V93.1328L84.4478 95.8233V89.4005L87.4122 88.5464V97.2383L74.6742 94.0163V94.0134L74.6682 94.0152L74.6623 94.0134V94.0163L61.9243 97.2383V88.5464L64.8886 89.4005V95.8233L74.4391 93.1328V84.9398L72.3673 83.8664L74.6682 83.2927ZM70.8196 84.2522L72.68 86.1797L69.9337 87.0121L69.9397 86.9764L66.8895 85.232L70.8196 84.2522ZM78.5169 84.2522L82.447 85.232L79.3967 86.9764L79.4027 87.0121L76.6564 86.1797L78.5169 84.2522ZM65.5289 85.571L67.8191 87.6529L65.4064 88.384L61.9663 86.4594L65.5289 85.571ZM83.8073 85.571L87.3701 86.4594L83.9301 88.3839L81.5174 87.6528L83.8073 85.571ZM60.5782 86.8054V88.3169L57.8674 88.9326L56.9591 87.7078L60.5782 86.8054ZM88.7578 86.8054L92.3771 87.7078L91.4688 88.9326L88.7579 88.3169L88.7578 86.8054ZM55.6091 88.0442V89.4447L52.1186 90.2373L51.3451 89.1065L55.6091 88.0442ZM93.727 88.0442L97.991 89.1072L97.2176 90.2381L93.7271 89.4455V88.0449L93.727 88.0442ZM49.8782 89.4728C49.88 89.8979 49.8806 90.3213 49.8819 90.7462L47.2396 91.3464L46.4787 90.3202L49.8782 89.4728ZM99.4579 89.4728L102.857 90.3202L102.096 91.3464L99.4541 90.7462C99.456 90.3213 99.4562 89.8979 99.4579 89.4728ZM45.0021 90.6887C45.004 91.0777 45.004 91.4654 45.0047 91.8542L42.6988 92.3778L42.0013 91.4367L45.0021 90.6887ZM104.336 90.6887L107.337 91.4367L106.639 92.3778L104.333 91.8542C104.333 91.4654 104.333 91.0777 104.336 90.6887ZM74.6699 95.4925L88.407 98.9638V99.5574L74.6759 96.4519V96.4493L74.6699 96.4511L74.6639 96.4493V96.4519L60.9328 99.5574V98.9638L74.6699 95.4925ZM20.6313 108.545V108.685H20.6667V108.694H58.3209V108.691H91.0189V108.694H128.673V108.685H128.708V108.545L20.6313 108.545Z" fill="white"/>
<path d="M20.5742 110.797H128.651V108.553H20.5742V110.797Z" fill="white"/>
<path d="M20.5742 108.543H128.649V106.299H20.5742V108.543Z" fill="white"/>
<path d="M20.5742 113.049H128.649V110.805H20.5742V113.049Z" fill="white"/>
<path d="M75.4977 36.1666L63.9038 51.2891V36.1666H61.1311V55.7694H63.7077L75.3286 40.6751V55.7694H78.0743V36.1666H75.4977ZM46.277 36.1666V55.7694H49.0502L49.0213 38.6025H56.4978L56.526 36.166L46.277 36.1666ZM38.6403 36.1666L30.5757 49.9442L22.3978 36.1666H20.1016V55.7694H22.7906V41.5712L29.875 53.3889H31.1633L38.2483 41.4877L38.2765 55.7696H40.965L40.9368 36.1668L38.6403 36.1666Z" fill="white"/>
<path d="M104.07 55.7786L104.043 36.1758H101.747L93.6806 49.9542L85.5041 36.1758H83.207V55.7786H85.8955V41.5804L92.9811 53.3981H94.2687L101.354 41.4962L101.382 55.7786H104.07Z" fill="white"/>
<path d="M128.898 45.962C128.898 40.2006 124.479 35.9492 118.522 35.9492C112.509 35.9492 108.09 40.2281 108.09 45.962C108.09 51.6952 112.509 55.9748 118.522 55.9748C124.479 55.9748 128.898 51.7235 128.898 45.962ZM118.522 53.4862C114.132 53.4862 110.887 50.2968 110.887 45.962C110.887 41.6265 114.132 38.4379 118.522 38.4379C122.857 38.4379 126.102 41.6265 126.102 45.962C126.102 50.297 122.857 53.4862 118.522 53.4862Z" fill="white"/>
<path d="M26.3455 65.0282C26.3455 65.721 26.2204 66.3197 25.9702 66.8243C25.7201 67.3289 25.3769 67.7181 24.9407 67.9918C24.5045 68.2655 24.0063 68.4023 23.4461 68.4023C22.8859 68.4023 22.3876 68.2655 21.9515 67.9918C21.5153 67.7181 21.1721 67.3289 20.9219 66.8243C20.6717 66.3197 20.5466 65.721 20.5466 65.0282C20.5466 64.3354 20.6717 63.7367 20.9219 63.2321C21.1721 62.7275 21.5153 62.3383 21.9515 62.0646C22.3876 61.7909 22.8859 61.6541 23.4461 61.6541C24.0063 61.6541 24.5045 61.7909 24.9407 62.0646C25.3769 62.3383 25.7201 62.7275 25.9702 63.2321C26.2204 63.7367 26.3455 64.3354 26.3455 65.0282ZM25.5757 65.0282C25.5757 64.4594 25.4806 63.9794 25.2903 63.5881C25.1021 63.1968 24.8466 62.9007 24.5237 62.6997C24.203 62.4987 23.8438 62.3982 23.4461 62.3982C23.0484 62.3982 22.6881 62.4987 22.3652 62.6997C22.0445 62.9007 21.7889 63.1968 21.5986 63.5881C21.4105 63.9794 21.3164 64.4594 21.3164 65.0282C21.3164 65.597 21.4105 66.077 21.5986 66.4683C21.7889 66.8596 22.0445 67.1557 22.3652 67.3567C22.6881 67.5577 23.0484 67.6582 23.4461 67.6582C23.8438 67.6582 24.203 67.5577 24.5237 67.3567C24.8466 67.1557 25.1021 66.8596 25.2903 66.4683C25.4806 66.077 25.5757 65.597 25.5757 65.0282ZM27.1184 69.9033V67.6069H27.5418C27.6872 67.4743 27.8241 67.2872 27.9524 67.0456C28.0828 66.8019 28.1929 66.4768 28.2827 66.0706C28.3746 65.6622 28.4356 65.1437 28.4655 64.515L28.6066 61.7439H32.5068V67.6069H33.2637V69.8905H32.5068V68.3125H27.8754V69.9033H27.1184ZM28.4912 67.6069H31.7498V62.4495H29.3251L29.2225 64.515C29.1968 64.994 29.1519 65.428 29.0877 65.8172C29.0236 66.2042 28.9413 66.5474 28.8408 66.8468C28.7403 67.144 28.6238 67.3973 28.4912 67.6069ZM34.4656 61.7439H35.2482V66.9141H35.3124L38.9046 61.7439H39.6743V68.3125H38.8789V63.1551H38.8148L35.2354 68.3125H34.4656V61.7439ZM41.2659 68.3125V61.7439H42.0614V64.669H45.5638V61.7439H46.3592V68.3125H45.5638V65.3746H42.0614V68.3125H41.2659ZM53.5324 67.5556L53.4425 69.8648H52.6215V68.3125H52.1596V67.5556H53.5324ZM47.9516 68.3125V61.7439H48.7085V67.5812H52.0955V61.7439H52.8524V68.3125H47.9516ZM60.2766 65.0282C60.2766 65.721 60.1515 66.3197 59.9013 66.8243C59.6511 67.3289 59.3079 67.7181 58.8717 67.9918C58.4356 68.2655 57.9373 68.4023 57.3771 68.4023C56.8169 68.4023 56.3187 68.2655 55.8825 67.9918C55.4463 67.7181 55.1031 67.3289 54.853 66.8243C54.6028 66.3197 54.4777 65.721 54.4777 65.0282C54.4777 64.3354 54.6028 63.7367 54.853 63.2321C55.1031 62.7275 55.4463 62.3383 55.8825 62.0646C56.3187 61.7909 56.8169 61.6541 57.3771 61.6541C57.9373 61.6541 58.4356 61.7909 58.8717 62.0646C59.3079 62.3383 59.6511 62.7275 59.9013 63.2321C60.1515 63.7367 60.2766 64.3354 60.2766 65.0282ZM59.5068 65.0282C59.5068 64.4594 59.4116 63.9794 59.2213 63.5881C59.0332 63.1968 58.7777 62.9007 58.4548 62.6997C58.1341 62.4987 57.7748 62.3982 57.3771 62.3982C56.9794 62.3982 56.6191 62.4987 56.2963 62.6997C55.9755 62.9007 55.72 63.1968 55.5297 63.5881C55.3416 63.9794 55.2475 64.4594 55.2475 65.0282C55.2475 65.597 55.3416 66.077 55.5297 66.4683C55.72 66.8596 55.9755 67.1557 56.2963 67.3567C56.6191 67.5577 56.9794 67.6582 57.3771 67.6582C57.7748 67.6582 58.1341 67.5577 58.4548 67.3567C58.7777 67.1557 59.0332 66.8596 59.2213 66.4683C59.4116 66.077 59.5068 65.597 59.5068 65.0282ZM61.614 68.3125V61.7439H63.9105C64.368 61.7439 64.7454 61.823 65.0426 61.9812C65.3398 62.1373 65.5612 62.3479 65.7066 62.6131C65.852 62.8761 65.9247 63.168 65.9247 63.4887C65.9247 63.7709 65.8744 64.004 65.7739 64.1879C65.6755 64.3718 65.5451 64.5172 65.3826 64.6241C65.2222 64.731 65.048 64.8101 64.8598 64.8614V64.9256C65.0608 64.9384 65.2629 65.009 65.466 65.1373C65.6691 65.2655 65.8391 65.4494 65.976 65.6889C66.1128 65.9284 66.1812 66.2213 66.1812 66.5677C66.1812 66.897 66.1064 67.1931 65.9567 67.4561C65.807 67.7191 65.5708 67.9276 65.2479 68.0816C64.925 68.2355 64.5049 68.3125 63.9874 68.3125H61.614ZM62.4094 67.6069H63.9874C64.507 67.6069 64.8759 67.5064 65.094 67.3054C65.3142 67.1023 65.4243 66.8564 65.4243 66.5677C65.4243 66.3453 65.3676 66.1401 65.2543 65.9519C65.141 65.7616 64.9796 65.6098 64.77 65.4965C64.5605 65.381 64.3124 65.3233 64.0259 65.3233H62.4094V67.6069ZM62.4094 64.6305H63.8848C64.1243 64.6305 64.3402 64.5835 64.5327 64.4894C64.7272 64.3953 64.8812 64.2627 64.9945 64.0917C65.11 63.9206 65.1677 63.7196 65.1677 63.4887C65.1677 63.2 65.0672 62.9552 64.8662 62.7542C64.6652 62.5511 64.3466 62.4495 63.9105 62.4495H62.4094V64.6305ZM73.0305 65.0282C73.0305 65.721 72.9054 66.3197 72.6552 66.8243C72.405 67.3289 72.0619 67.7181 71.6257 67.9918C71.1895 68.2655 70.6913 68.4023 70.1311 68.4023C69.5708 68.4023 69.0726 68.2655 68.6364 67.9918C68.2002 67.7181 67.8571 67.3289 67.6069 66.8243C67.3567 66.3197 67.2316 65.721 67.2316 65.0282C67.2316 64.3354 67.3567 63.7367 67.6069 63.2321C67.8571 62.7275 68.2002 62.3383 68.6364 62.0646C69.0726 61.7909 69.5708 61.6541 70.1311 61.6541C70.6913 61.6541 71.1895 61.7909 71.6257 62.0646C72.0619 62.3383 72.405 62.7275 72.6552 63.2321C72.9054 63.7367 73.0305 64.3354 73.0305 65.0282ZM72.2607 65.0282C72.2607 64.4594 72.1656 63.9794 71.9753 63.5881C71.7871 63.1968 71.5316 62.9007 71.2087 62.6997C70.888 62.4987 70.5288 62.3982 70.1311 62.3982C69.7333 62.3982 69.3731 62.4987 69.0502 62.6997C68.7295 62.9007 68.4739 63.1968 68.2836 63.5881C68.0955 63.9794 68.0014 64.4594 68.0014 65.0282C68.0014 65.597 68.0955 66.077 68.2836 66.4683C68.4739 66.8596 68.7295 67.1557 69.0502 67.3567C69.3731 67.5577 69.7333 67.6582 70.1311 67.6582C70.5288 67.6582 70.888 67.5577 71.2087 67.3567C71.5316 67.1557 71.7871 66.8596 71.9753 66.4683C72.1656 66.077 72.2607 65.597 72.2607 65.0282Z" fill="white"/>
</svg>
